<?xml version="1.0" encoding="UTF-8"?>
<svg width="120px" height="120px" viewBox="0 0 120 120" version="1.1" xmlns="http://www.w3.org/2000/svg" xmlns:xlink="http://www.w3.org/1999/xlink">
    <title>atlan</title>
    <g id="atlan" stroke="none" stroke-width="1" fill="none" fill-rule="evenodd">
        <g id="Group" transform="translate(30.000000, 30.000000)" fill-rule="nonzero">
            <path d="M59.6345368,1.59193709 L59.6345368,58.2076741 L43.0046571,58.2076741 L43.0046571,52.911534 C38.8409806,57.6176376 32.7550836,60.163181 26.4807002,59.8229968 C11.9692765,59.8229968 -5.92118946e-14,46.7944923 -5.92118946e-14,29.9262863 C-5.92118946e-14,13.0580803 11.9692765,0.0295757842 26.4807002,0.0295757842 C32.7544015,-0.30666223 38.8386499,2.23819167 43.0046571,6.94103853 L43.0046571,1.6448985 L59.6345368,1.59193709 Z M43.0046571,29.8998056 C43.2955696,26.2594624 42.0132136,22.6688707 39.4820162,20.0364254 C36.9508187,17.40398 33.4132561,15.9818562 29.764307,16.1298415 C26.1153579,15.9818562 22.5777953,17.40398 20.0465978,20.0364254 C17.5154004,22.6688707 16.2330444,26.2594624 16.5239569,29.8998056 C16.2344938,33.5446575 17.5155239,37.1396178 20.0446976,39.7800751 C22.5738714,42.4205325 26.110375,43.8550775 29.764307,43.7227311 C37.4437101,43.6168083 43.0046571,38.3206682 43.0046571,29.8998056 Z" id="Shape" fill="#2026D2"></path>
            <path d="M29.8172684,36.8642297 C32.6455431,36.9180089 35.2253777,35.2557035 36.3451796,32.6579981 C37.4649815,30.0602926 36.9022616,27.0433154 34.9212953,25.0239583 C32.9403291,23.0046012 29.9347074,22.3840828 27.315989,23.4538231 C24.6972706,24.5235634 22.985759,27.0710196 22.9852478,29.8998056 C22.9640709,31.7303971 23.6728282,33.494048 24.9548561,34.8009215 C26.2368841,36.1077949 27.9866076,36.8502698 29.8172684,36.8642297 L29.8172684,36.8642297 Z" id="Path" fill="#62E1FC"></path>
        </g>
    </g>
</svg>